<?xml version="1.0" encoding="utf-8"?>
<!-- Generator: Adobe Illustrator 22.0.1, SVG Export Plug-In . SVG Version: 6.00 Build 0)  -->
<svg version="1.1" id="Layer_1" xmlns="http://www.w3.org/2000/svg" xmlns:xlink="http://www.w3.org/1999/xlink" x="0px" y="0px"
	 viewBox="0 0 231 70" style="enable-background:new 0 0 231 70;" xml:space="preserve">
<style type="text/css">
	.st0{fill:#E95515;}
</style>
<g>
	<path class="st0" d="M41,22.5c-9.9,0-19.7,0.8-27.9,2.8c-4,1-8.3,2.1-10.3,5.8C19.3,24.7,41.3,24.6,62,23
		C54.8,22.7,48.1,22.6,41,22.5z"/>
	<path class="st0" d="M113.4,3.5c20.8,0.1,42.8-0.1,64.9,1.9c14,1.2,27.5,4.6,33.7,12.9c0.9,1.2,1.7,2.4,1.8,4.3
		c-46.5,0.2-92.7,0.7-139.3,0.8c4.7-3,10-6,15.6-8.9c5-2.6,11.4-6.2,17.3-6.9c5-0.6,10.1-0.4,15.3-0.5c5-0.1,10.2-0.2,15.6-0.2
		c2.1,4.6,3.9,9.3,5.9,13.9c0,0.1,0.1,0.2,0.2,0c-0.7-4.6-1.8-9.6-2-14.1c13.4,0.3,27,0.5,41,1.3c0.2,0,0.1-0.2-0.1-0.2
		c-22.9-2-46.6-2.8-68.1-2.9c-6,0-10.7,0.1-15.3,1.5c-12.2,3.7-23.4,10.9-32.6,18.2c-0.2,0.2-1,0.4-0.8,1
		c51-0.5,103.1,0.5,155.3,1.6c-3.4-13.6-16.1-19.5-30.2-22.5c-22.1-4.8-49.4-4.9-72.4-4.6c-4.2,0.1-8.1-0.1-11.7,0.4
		s-6.7,1.4-9.9,2.6C85.3,7.7,74.6,14.7,65,21.6c9.1-5.9,18.7-11.2,29.9-15C100.3,4.8,106.6,3.4,113.4,3.5z"/>
	<path class="st0" d="M219.8,27.6c-45,0.8-89.9,1.5-134.9,2.3c-25.7,0.4-51.5,0.9-77.2,1.3c-1.6,0-5.9,2.5-2.3,2.5
		c10.5-0.2,21-0.4,31.4-0.5c-4.1,1.5-7.3,4.3-8.8,8.4c3.7-3.6,9.7-6.1,16.1-5.7c6.6,0.4,12,4,15.4,7.2C57.8,38.5,54,34.7,49.1,33
		c30.4-0.5,60.7-1,91.1-1.5c16.3-0.3,32.6-0.6,48.8-0.8c-4.7,1.3-8.4,4.3-10.1,8.9c3.7-3.6,9.6-6.1,15.9-5.7
		c6.5,0.4,11.8,4,15.2,7.2c-1.8-5-6-9.1-11.4-10.5c6.3-0.1,12.5-0.2,18.8-0.3C219.1,30.1,223.4,27.5,219.8,27.6z"/>
	<path class="st0" d="M69.3,57.5c-0.1,0.4-0.1,0.7-0.4,0.7c-0.1,0-0.3,0.1-0.4,0.1s-0.1,0-0.1,0.1s0.1,0.1,0.2,0.1
		c0.2,0,0.5,0,0.8,0s0.5,0,0.5,0c0.1,0,0.4,0,0.8,0s0.8,0,0.9,0c2.3,0,3.4-1.5,3.4-2.9c0-1.5-1.3-2.5-2.3-2.8
		c0.6-0.6,1.2-1.3,1.2-2.4c0-0.7-0.5-2-2.6-2c-0.6,0-1.1,0-1.4,0c-0.1,0-0.9,0-1.5,0c-0.1,0-0.2,0-0.2,0.1s0.1,0.1,0.1,0.1
		c0.1,0,0.3,0,0.4,0c0.4,0.1,0.5,0.3,0.6,0.8c0,0.4,0,0.8,0,2.9v2.3C69.3,55.9,69.3,56.9,69.3,57.5z M70.4,49.1c0-0.1,0-0.1,0.2-0.1
		c0.2-0.1,0.5-0.1,0.6-0.1c1.3,0,1.8,1.2,1.8,2.3c0,0.5-0.2,1-0.5,1.3s-0.5,0.3-1.2,0.3c-0.5,0-0.7,0-0.8-0.1
		c-0.1,0-0.1-0.1-0.1-0.1V49.1z M70.4,53.2C70.4,53.2,70.4,53.1,70.4,53.2c0.3-0.1,0.9-0.1,1.1-0.1c0.3,0,0.6,0.1,1.1,0.4
		c1,0.7,1.3,1.8,1.3,2.6c0,1.5-1.1,1.9-1.9,1.9c-0.2,0-0.8,0-1.2-0.2c-0.4-0.2-0.4-0.4-0.4-1c0-0.2,0-1.8,0-2.9V53.2z"/>
	<path class="st0" d="M89.6,58.3c-0.1,0-0.3,0-0.5,0c-0.3-0.1-0.9-0.2-1.6-1c-0.8-0.8-1.7-2-2.7-3.4c1.2-1.1,1.6-2.1,1.6-3
		s-0.6-1.6-0.9-1.8c-0.7-0.5-1.6-0.6-2.4-0.6c-0.4,0-1.4,0-1.6,0c-0.1,0-0.9,0-1.5,0c-0.1,0-0.2,0-0.2,0.1s0.1,0.1,0.1,0.1
		c0.1,0,0.3,0,0.4,0c0.4,0.1,0.5,0.3,0.6,0.8c0,0.4,0,0.8,0,2.9v2.3c0,1.3,0,2.3-0.1,2.9c-0.1,0.4-0.1,0.7-0.4,0.7
		c-0.1,0-0.3,0.1-0.4,0.1s-0.1,0-0.1,0.1s0.1,0.1,0.2,0.1c0.4,0,1.2,0,1.2,0c0.1,0,0.9,0,1.6,0c0.1,0,0.2,0,0.2-0.1
		c0,0,0-0.1-0.1-0.1s-0.4,0-0.6-0.1c-0.4-0.1-0.5-0.3-0.5-0.7c-0.1-0.6-0.1-1.6-0.1-2.9v-0.3c0-0.1,0-0.1,0.1-0.1h1.6
		c0.1,0,0.1,0,0.2,0.1c0.3,0.3,0.9,1.2,1.4,2c0.8,1,1.2,1.6,1.8,1.9c0.3,0.2,0.7,0.3,1.4,0.3h0.9c0.2,0,0.3,0,0.3-0.1
		C89.7,58.3,89.6,58.3,89.6,58.3z M83.4,53.8c-0.6,0-1.2-0.1-1.4-0.2c-0.1,0-0.1-0.1-0.1-0.2v-4.3c0-0.1,0-0.1,0.1-0.2
		c0.1,0,0.5-0.1,0.9-0.1c1.4,0,2.3,1,2.3,2.6c0,1-0.3,1.7-0.8,2C84.1,53.8,83.7,53.8,83.4,53.8z"/>
	<path class="st0" d="M93.4,57.5c-0.1,0.4-0.1,0.7-0.4,0.7c-0.1,0-0.3,0.1-0.4,0.1s-0.1,0-0.1,0.1s0.1,0.1,0.2,0.1
		c0.4,0,1.2,0,1.3,0c0.1,0,0.9,0,1.6,0c0.1,0,0.2,0,0.2-0.1c0,0,0-0.1-0.1-0.1s-0.4,0-0.6-0.1c-0.4-0.1-0.5-0.3-0.5-0.7
		c-0.1-0.6-0.1-1.6-0.1-2.9v-2.3c0-2.1,0-2.4,0-2.9s0.1-0.7,0.5-0.8c0.2,0,0.2,0,0.3,0c0.1,0,0.1,0,0.1-0.1s-0.1-0.1-0.2-0.1
		c-0.4,0-1.2,0-1.3,0c-0.1,0-0.9,0-1.3,0c-0.1,0-0.2,0-0.2,0.1s0.1,0.1,0.1,0.1c0.1,0,0.3,0,0.4,0.1c0.3,0.1,0.4,0.3,0.4,0.7
		s0,0.8,0,2.9v2.3C93.4,55.9,93.4,56.9,93.4,57.5z"/>
	<path class="st0" d="M106.9,56.6c-0.1,0-0.1,0.1-0.1,0.2c0,0.3-0.2,0.6-0.3,0.8c-0.3,0.4-0.9,0.4-1.6,0.4c-1,0-1.4-0.1-1.6-0.3
		s-0.3-1.1-0.3-3v-2.4c0-2.1,0-2.4,0-2.9s0.1-0.7,0.5-0.8c0.2,0,0.3,0,0.4,0s0.1,0,0.1-0.1s-0.1-0.1-0.2-0.1c-0.4,0-1.4,0-1.4,0
		c-0.1,0-0.9,0-1.5,0c-0.1,0-0.2,0-0.2,0.1s0.1,0.1,0.1,0.1c0.1,0,0.3,0,0.4,0c0.4,0.1,0.5,0.3,0.6,0.8c0,0.4,0,0.8,0,2.9v2.3
		c0,1.3,0,2.3-0.1,2.9c-0.1,0.4-0.1,0.7-0.4,0.7c-0.1,0-0.3,0.1-0.4,0.1s-0.1,0-0.1,0.1s0.1,0.1,0.2,0.1c0.2,0,0.5,0,0.8,0
		s0.5,0,0.5,0c0.4,0,0.8,0,1.3,0c0.6,0,1.2,0,2.2,0c0.7,0,0.7-0.1,0.8-0.4c0.1-0.4,0.2-1.2,0.2-1.3C107,56.7,107,56.6,106.9,56.6z"
		/>
	<path class="st0" d="M114.3,58.5c0.6,0,1.2,0,2.2,0c0.7,0,0.7-0.1,0.8-0.4c0.1-0.4,0.2-1.2,0.2-1.3s0-0.2-0.1-0.2s-0.1,0.1-0.1,0.2
		c0,0.3-0.2,0.6-0.3,0.8c-0.3,0.4-0.9,0.4-1.6,0.4c-1,0-1.4-0.1-1.6-0.3s-0.3-1.1-0.3-3v-2.4c0-2.1,0-2.4,0-2.9s0.1-0.7,0.5-0.8
		c0.2,0,0.3,0,0.4,0s0.1,0,0.1-0.1s-0.1-0.1-0.2-0.1c-0.4,0-1.4,0-1.4,0c-0.1,0-0.9,0-1.5,0c-0.1,0-0.2,0-0.2,0.1s0.1,0.1,0.1,0.1
		c0.1,0,0.3,0,0.4,0c0.4,0.1,0.5,0.3,0.6,0.8c0,0.4,0,0.8,0,2.9v2.3c0,1.3,0,2.3-0.1,2.9c-0.1,0.4-0.1,0.7-0.4,0.7
		c-0.1,0-0.3,0.1-0.4,0.1s-0.1,0-0.1,0.1s0.1,0.1,0.2,0.1c0.2,0,0.5,0,0.8,0s0.5,0,0.5,0C113.3,58.4,113.7,58.4,114.3,58.5z"/>
	<path class="st0" d="M125.1,58.3c-0.1,0-0.4,0-0.6-0.1c-0.4-0.1-0.5-0.3-0.5-0.7c-0.1-0.6-0.1-1.6-0.1-2.9v-2.3c0-2.1,0-2.4,0-2.9
		s0.1-0.7,0.5-0.8c0.2,0,0.2,0,0.3,0c0.1,0,0.1,0,0.1-0.1s-0.1-0.1-0.2-0.1c-0.4,0-1.2,0-1.3,0c-0.1,0-0.9,0-1.3,0
		c-0.1,0-0.2,0-0.2,0.1s0.1,0.1,0.1,0.1c0.1,0,0.3,0,0.4,0.1c0.3,0.1,0.4,0.3,0.4,0.7s0,0.8,0,2.9v2.3c0,1.3,0,2.3-0.1,2.9
		c-0.1,0.4-0.1,0.7-0.4,0.7c-0.1,0-0.3,0.1-0.4,0.1s-0.1,0-0.1,0.1s0.1,0.1,0.2,0.1c0.4,0,1.2,0,1.3,0c0.1,0,0.9,0,1.6,0
		C124.9,58.5,125,58.5,125.1,58.3C125.2,58.3,125.2,58.3,125.1,58.3z"/>
	<path class="st0" d="M136,58.2C135.9,58.3,135.9,58.3,136,58.2c-0.1,0.2,0.1,0.2,0.3,0.2c0.9,0,1.9,0,2.1,0c0.1,0,0.3,0,0.3-0.1
		s-0.1-0.1-0.1-0.1c-0.1,0-0.3,0-0.5-0.1c-0.3-0.1-0.7-0.3-1.1-1.5c-0.8-2-2.9-7.5-3.1-8c-0.2-0.4-0.2-0.5-0.3-0.5s-0.1,0.1-0.3,0.5
		l-3,8.2c-0.2,0.7-0.5,1.2-1.1,1.2c-0.1,0-0.3,0-0.4,0c-0.1,0-0.1,0-0.1,0.1s0.1,0.1,0.3,0.1c0.6,0,1.3,0,1.5,0c0.1,0,0.7,0,1,0
		c0.1,0,0.2,0,0.2-0.1s0-0.1-0.1-0.1h-0.1c-0.2,0-0.5-0.1-0.5-0.4c0-0.2,0.1-0.6,0.2-0.9l0.8-2.3c0-0.1,0.1-0.1,0.1-0.1h2.8
		c0.1,0,0.1,0,0.1,0.1l1.2,3.2C136.1,58.1,136.1,58.2,136,58.2z M134.5,54.1H132c0,0-0.1,0,0-0.1l1.2-3.6c0.1-0.2,0.1-0.2,0.2,0
		L134.5,54.1C134.6,54,134.6,54.1,134.5,54.1z"/>
	<path class="st0" d="M152,48.5c-0.5,0-1,0-1.1,0s-0.8,0-1.4,0c-0.2,0-0.3,0-0.3,0.1s0,0.1,0.1,0.1s0.4,0,0.6,0.1
		c0.4,0.1,0.5,0.4,0.5,1.3l0.1,6.7c-0.4-0.4-1.9-2-3.2-3.4c-2-2.2-4-4.3-4.2-4.5c-0.1-0.1-0.4-0.4-0.5-0.4s-0.1,0.1-0.1,0.7v7.6
		c0,1.2-0.1,1.6-0.4,1.7c-0.2,0.1-0.4,0.1-0.5,0.1s-0.1,0-0.1,0.1s0.1,0.1,0.2,0.1c0.6,0,1.2,0,1.3,0s0.6,0,1.4,0
		c0.2,0,0.2,0,0.2-0.1s0-0.1-0.1-0.1s-0.4,0-0.7-0.1c-0.4-0.1-0.5-0.5-0.5-1.5l-0.2-6.3c0.4,0.5,1.9,2.1,3.4,3.8
		c1.4,1.5,3.3,3.4,3.4,3.6c0.7,0.7,0.9,0.8,1,0.8s0.1-0.1,0.1-0.9v-7.7c0-0.8,0.1-1.1,0.5-1.2c0.2,0,0.2,0,0.3,0s0.1,0,0.1-0.1
		C152.3,48.5,152.2,48.5,152,48.5z"/>
	<path class="st0" d="M160,49v5.6c0,1.3,0,2.3-0.1,2.9c-0.1,0.4-0.1,0.7-0.4,0.7c-0.1,0-0.3,0.1-0.4,0.1c-0.1,0-0.1,0-0.1,0.1
		s0.1,0.1,0.2,0.1c0.4,0,1.2,0,1.3,0s0.9,0,1.6,0c0.1,0,0.2,0,0.2-0.1c0,0,0-0.1-0.1-0.1s-0.4,0-0.6-0.1c-0.4-0.1-0.5-0.3-0.5-0.7
		c-0.1-0.6-0.1-1.6-0.1-2.9V49h1.7c1.3,0,1.6,0.3,1.6,0.7v0.1c0,0.2,0,0.2,0.1,0.2s0.1-0.1,0.1-0.2c0-0.1,0-1.1,0-1.5
		c0-0.1,0-0.2-0.1-0.2s-0.2,0-0.4,0.1c-0.2,0-0.5,0.1-0.9,0.1h-5c-0.2,0-0.7,0-1-0.1c-0.4,0-0.5-0.2-0.6-0.2s-0.1,0.2-0.1,0.3
		s-0.3,1.2-0.3,1.4c0,0.1,0,0.1,0.1,0.1s0.1,0,0.1-0.1s0.1-0.2,0.2-0.4c0.2-0.3,0.5-0.4,1.3-0.4L160,49z"/>
	<polygon class="st0" points="73,65.2 71.9,62.9 70.7,65.2 68.1,65.6 70,67.4 69.6,70 71.9,68.8 74.2,70 73.8,67.4 75.6,65.6 	"/>
	<polygon class="st0" points="95.3,65.2 94.2,62.9 93,65.2 90.4,65.6 92.3,67.4 91.9,70 94.2,68.8 96.5,70 96.1,67.4 97.9,65.6 	"/>
	<polygon class="st0" points="117.6,65.2 116.5,62.9 115.3,65.2 112.7,65.6 114.6,67.4 114.2,70 116.5,68.8 118.8,70 118.4,67.4 
		120.2,65.6 	"/>
	<polygon class="st0" points="139.9,65.2 138.8,62.9 137.6,65.2 135,65.6 136.9,67.4 136.5,70 138.8,68.8 141.1,70 140.7,67.4 
		142.5,65.6 	"/>
	<rect y="58.3" class="st0" width="62.3" height="0.2"/>
	<rect x="168.8" y="58.3" class="st0" width="62.3" height="0.2"/>
	<polygon class="st0" points="162.2,65.2 161.1,62.9 161,63.1 160.8,62.9 159.7,65.2 157.1,65.6 159,67.4 158.5,70 158.8,69.9 
		158.8,70 161,68.8 163.1,70 163.1,69.9 163.4,70 162.9,67.4 164.8,65.6 	"/>
</g>
</svg>
