<?xml version="1.0" encoding="utf-8"?>
<!-- Generator: Adobe Illustrator 17.0.0, SVG Export Plug-In . SVG Version: 6.00 Build 0)  -->
<!DOCTYPE svg PUBLIC "-//W3C//DTD SVG 1.1//EN" "http://www.w3.org/Graphics/SVG/1.1/DTD/svg11.dtd">
<svg version="1.1" id="Layer_1" xmlns="http://www.w3.org/2000/svg" xmlns:xlink="http://www.w3.org/1999/xlink" x="0px" y="0px"
	 width="210px" height="55px" viewBox="0 0 210 55" enable-background="new 0 0 210 55" xml:space="preserve">
<g>
	<g>
		<path fill="#231815" d="M201.561,54.968H8.439C3.784,54.968,0,51.183,0,46.529V8.439C0,3.787,3.784,0,8.439,0h193.122
			C206.215,0,210,3.787,210,8.439v38.089C210,51.183,206.215,54.968,201.561,54.968z M8.439,2.531c-3.259,0-5.908,2.651-5.908,5.909
			v38.089c0,3.26,2.649,5.91,5.908,5.91h193.122c3.258,0,5.908-2.65,5.908-5.91V8.439c0-3.258-2.65-5.909-5.908-5.909H8.439z"/>
	</g>
	<g>
		<g>
			<path fill="#231815" d="M12.101,16.985l-1.016,3.079H9.779l3.325-9.788h1.524l3.339,9.788h-1.35l-1.045-3.079H12.101z
				 M15.31,15.997l-0.973-2.817c-0.203-0.638-0.348-1.219-0.493-1.785h-0.044c-0.131,0.566-0.29,1.175-0.479,1.771l-0.958,2.832
				H15.31z"/>
			<path fill="#231815" d="M23.066,10.422c0.552-0.13,1.438-0.218,2.308-0.218c1.264,0,2.076,0.218,2.672,0.712
				c0.507,0.377,0.827,0.957,0.827,1.728c0,0.958-0.638,1.785-1.654,2.148v0.043c0.929,0.219,2.018,0.988,2.018,2.441
				c0,0.842-0.334,1.48-0.842,1.959c-0.668,0.624-1.772,0.914-3.368,0.914c-0.872,0-1.54-0.056-1.96-0.115V10.422z M24.329,14.429
				h1.146c1.322,0,2.106-0.711,2.106-1.654c0-1.134-0.856-1.598-2.134-1.598c-0.581,0-0.915,0.044-1.118,0.088V14.429z
				 M24.329,19.105c0.262,0.043,0.61,0.057,1.06,0.057c1.305,0,2.511-0.479,2.511-1.902c0-1.322-1.147-1.888-2.527-1.888h-1.045
				V19.105z"/>
			<path fill="#231815" d="M31.227,10.422c0.638-0.13,1.568-0.218,2.425-0.218c1.35,0,2.236,0.262,2.846,0.813
				c0.479,0.421,0.769,1.09,0.769,1.859c0,1.277-0.828,2.134-1.844,2.483v0.043c0.741,0.261,1.19,0.958,1.437,1.974
				c0.319,1.365,0.551,2.309,0.741,2.688h-1.307c-0.16-0.277-0.378-1.118-0.639-2.339c-0.289-1.35-0.828-1.859-1.974-1.902h-1.19
				v4.241h-1.263V10.422z M32.491,14.865h1.292c1.35,0,2.206-0.741,2.206-1.859c0-1.263-0.913-1.816-2.25-1.816
				c-0.609,0-1.031,0.059-1.248,0.117V14.865z"/>
			<path fill="#231815" d="M40.984,16.985l-1.015,3.079h-1.308l3.325-9.788h1.525l3.34,9.788h-1.351l-1.045-3.079H40.984z
				 M44.193,15.997l-0.972-2.817c-0.204-0.638-0.349-1.219-0.494-1.785h-0.044c-0.13,0.566-0.29,1.175-0.479,1.771l-0.958,2.832
				H44.193z"/>
			<path fill="#231815" d="M48.579,20.064v-9.788h1.394l3.122,4.951c0.712,1.147,1.293,2.163,1.743,3.18l0.043-0.015
				c-0.117-1.306-0.145-2.497-0.145-4.007v-4.109h1.19v9.788h-1.278l-3.107-4.966c-0.683-1.089-1.335-2.207-1.815-3.267
				l-0.044,0.015c0.072,1.233,0.087,2.409,0.087,4.035v4.183H48.579z"/>
			<path fill="#231815" d="M58.412,10.408c0.783-0.115,1.699-0.204,2.7-0.204c1.815,0,3.107,0.406,3.964,1.205
				c0.886,0.8,1.393,1.948,1.393,3.529c0,1.597-0.507,2.905-1.408,3.804c-0.929,0.915-2.439,1.408-4.341,1.408
				c-0.915,0-1.655-0.028-2.309-0.115V10.408z M59.689,19.076c0.319,0.059,0.783,0.059,1.277,0.059
				c2.701,0.014,4.167-1.512,4.167-4.153c0.015-2.337-1.292-3.776-3.963-3.776c-0.654,0-1.148,0.06-1.481,0.131V19.076z"/>
			<path fill="#231815" d="M71.757,20.064v-9.788h1.394l3.122,4.951c0.711,1.147,1.291,2.163,1.743,3.18l0.042-0.015
				c-0.116-1.306-0.145-2.497-0.145-4.007v-4.109h1.191v9.788h-1.278l-3.107-4.966c-0.683-1.089-1.336-2.207-1.815-3.267
				l-0.043,0.015c0.072,1.233,0.087,2.409,0.087,4.035v4.183H71.757z"/>
			<path fill="#231815" d="M86.656,15.474h-3.79v3.529h4.24v1.06h-5.518v-9.788h5.299v1.06h-4.022v3.093h3.79V15.474z"/>
			<path fill="#231815" d="M90.764,20.064l-2.483-9.788h1.337l1.162,4.951c0.289,1.234,0.551,2.44,0.726,3.382h0.029
				c0.159-0.973,0.464-2.134,0.798-3.397l1.306-4.937h1.322l1.189,4.966c0.277,1.176,0.539,2.323,0.683,3.354h0.028
				c0.203-1.075,0.48-2.164,0.784-3.384l1.293-4.937h1.291l-2.772,9.788h-1.321l-1.235-5.083c-0.305-1.263-0.508-2.222-0.638-3.209
				h-0.029c-0.16,0.987-0.392,1.932-0.755,3.194l-1.394,5.098H90.764z"/>
		</g>
		<g>
			<path fill="#231815" d="M24.588,42.648c-1.134,0.385-3.281,0.915-5.428,0.915c-2.967,0-5.113-0.747-6.609-2.17
				c-1.471-1.422-2.291-3.545-2.291-5.934c0.024-5.402,3.956-8.49,9.287-8.49c2.098,0,3.714,0.409,4.51,0.771l-0.771,2.967
				c-0.893-0.409-1.979-0.7-3.763-0.7c-3.064,0-5.403,1.737-5.403,5.259c0,3.377,2.122,5.332,5.138,5.332
				c0.819,0,1.495-0.098,1.785-0.218v-3.426h-2.509v-2.87h6.054V42.648z"/>
			<path fill="#231815" d="M31.222,39.223l-1.134,4.172h-3.81l4.969-16.258h4.8l5.065,16.258h-3.957l-1.253-4.172H31.222z
				 M35.347,36.473l-1.013-3.45c-0.265-0.964-0.555-2.193-0.796-3.135h-0.072c-0.217,0.964-0.482,2.195-0.724,3.135l-0.989,3.45
				H35.347z"/>
			<path fill="#231815" d="M57.033,37.173c-0.073-1.954-0.145-4.294-0.145-6.683H56.84c-0.53,2.075-1.206,4.39-1.833,6.296
				l-1.979,6.345h-2.871l-1.736-6.273c-0.53-1.931-1.061-4.222-1.472-6.369h-0.049c-0.071,2.195-0.168,4.704-0.264,6.73
				l-0.313,6.175h-3.402l1.037-16.258h4.896l1.592,5.452c0.531,1.857,1.013,3.883,1.375,5.789h0.098
				c0.433-1.882,0.988-4.005,1.543-5.838l1.712-5.403H60l0.868,16.258h-3.57L57.033,37.173z"/>
			<path fill="#231815" d="M67.455,39.223l-1.135,4.172h-3.81l4.969-16.258h4.8l5.067,16.258h-3.957l-1.255-4.172H67.455z
				 M71.58,36.473l-1.014-3.45c-0.265-0.964-0.555-2.193-0.796-3.135h-0.073c-0.216,0.964-0.482,2.195-0.723,3.135l-0.989,3.45
				H71.58z"/>
			<path fill="#231815" d="M79.517,43.395V27.138h4.293l3.378,5.958c0.964,1.712,1.904,3.74,2.652,5.572h0.048
				c-0.217-2.149-0.289-4.342-0.289-6.803v-4.728h3.377v16.258h-3.859l-3.474-6.271c-0.965-1.761-2.05-3.836-2.822-5.741h-0.096
				c0.121,2.171,0.169,4.463,0.169,7.115v4.896H79.517z"/>
			<path fill="#231815" d="M99.851,27.138v16.258h-3.666V27.138H99.851z"/>
			<path fill="#231815" d="M106.798,39.223l-1.134,4.172h-3.81l4.969-16.258h4.8l5.066,16.258h-3.957l-1.253-4.172H106.798z
				 M110.924,36.473l-1.013-3.45c-0.265-0.964-0.554-2.193-0.796-3.135h-0.073c-0.217,0.964-0.482,2.195-0.723,3.135l-0.989,3.45
				H110.924z"/>
			<path fill="#231815" d="M137.313,42.648c-1.134,0.385-3.28,0.915-5.427,0.915c-2.968,0-5.114-0.747-6.61-2.17
				c-1.471-1.422-2.291-3.545-2.291-5.934c0.023-5.402,3.957-8.49,9.287-8.49c2.098,0,3.715,0.409,4.51,0.771l-0.772,2.967
				c-0.892-0.409-1.977-0.7-3.762-0.7c-3.064,0-5.403,1.737-5.403,5.259c0,3.377,2.123,5.332,5.138,5.332
				c0.82,0,1.496-0.098,1.785-0.218v-3.426h-2.508v-2.87h6.054V42.648z"/>
			<path fill="#231815" d="M140.184,27.379c1.183-0.217,2.919-0.362,4.897-0.362c2.413,0,4.101,0.362,5.259,1.303
				c0.989,0.772,1.519,1.907,1.519,3.401c0,2.05-1.471,3.473-2.87,3.981v0.07c1.134,0.459,1.761,1.52,2.171,3.016
				c0.507,1.857,0.99,3.98,1.302,4.606H148.7c-0.242-0.458-0.652-1.785-1.11-3.786c-0.459-2.051-1.158-2.581-2.677-2.606h-1.086
				v6.392h-3.643V27.379z M143.827,34.351h1.447c1.833,0,2.92-0.917,2.92-2.341c0-1.471-1.013-2.243-2.702-2.243
				c-0.893,0-1.399,0.048-1.664,0.12V34.351z"/>
			<path fill="#231815" d="M161.293,43.662c-4.8,0-7.646-3.642-7.646-8.275c0-4.873,3.136-8.514,7.911-8.514
				c4.994,0,7.719,3.739,7.719,8.225c0,5.354-3.209,8.565-7.96,8.565H161.293z M161.463,40.741c2.484,0,3.907-2.339,3.907-5.522
				c0-2.92-1.374-5.428-3.907-5.428c-2.533,0-3.956,2.461-3.956,5.5c0,3.062,1.471,5.45,3.932,5.45H161.463z"/>
			<path fill="#231815" d="M175.358,27.138v9.335c0,2.821,1.086,4.244,2.943,4.244c1.93,0,2.992-1.351,2.992-4.244v-9.335h3.667
				v9.118c0,5.015-2.534,7.406-6.779,7.406c-4.1,0-6.489-2.292-6.489-7.455v-9.069H175.358z"/>
			<path fill="#231815" d="M188.143,27.355c1.134-0.193,2.726-0.338,4.969-0.338c2.268,0,3.907,0.434,4.993,1.327
				c1.037,0.796,1.712,2.147,1.712,3.739c0,1.616-0.506,2.968-1.47,3.86c-1.255,1.159-3.137,1.714-5.307,1.714
				c-0.483,0-0.917-0.025-1.254-0.097v5.837h-3.643V27.355z M191.785,34.736c0.313,0.072,0.699,0.097,1.23,0.097
				c1.954,0,3.16-0.989,3.16-2.63c0-1.495-1.013-2.388-2.87-2.388c-0.748,0-1.254,0.047-1.519,0.12V34.736z"/>
		</g>
	</g>
</g>
</svg>
