<?xml version="1.0" encoding="utf-8"?>
<!-- Generator: Adobe Illustrator 16.0.0, SVG Export Plug-In . SVG Version: 6.00 Build 0)  -->
<!DOCTYPE svg PUBLIC "-//W3C//DTD SVG 1.1//EN" "http://www.w3.org/Graphics/SVG/1.1/DTD/svg11.dtd">
<svg version="1.1" id="Layer_1" xmlns="http://www.w3.org/2000/svg" xmlns:xlink="http://www.w3.org/1999/xlink" x="0px" y="0px"
	 width="204px" height="72px" viewBox="0 0 204 72" enable-background="new 0 0 204 72" xml:space="preserve">
<g>
	<path fill="#58595B" d="M82.102,59.336V58.36h2.987c0.272,0,0.498-0.087,0.676-0.265c0.178-0.179,0.266-0.405,0.266-0.678v-5.955
		h1.082v6.097c0,0.486-0.174,0.906-0.521,1.255c-0.343,0.349-0.759,0.521-1.25,0.521H82.102z"/>
	<path fill="#58595B" d="M94.857,59.336h-4.186c-0.477,0-0.884-0.149-1.223-0.454c-0.334-0.305-0.501-0.665-0.501-1.088v-2.721
		c0-0.43,0.169-0.793,0.507-1.093c0.34-0.306,0.745-0.454,1.217-0.45h4.186V59.336z M93.81,58.393v-3.911h-2.896
		c-0.261,0-0.479,0.079-0.657,0.233c-0.17,0.158-0.256,0.353-0.26,0.587v2.271c0.004,0.234,0.09,0.429,0.26,0.587
		c0.179,0.154,0.396,0.232,0.657,0.232H93.81z"/>
	<path fill="#58595B" d="M102.774,55.08v4.256h-1.057v-4.034c0-0.238-0.086-0.437-0.259-0.592c-0.174-0.157-0.392-0.235-0.65-0.235
		h-2.077c-0.26,0-0.478,0.078-0.651,0.235c-0.17,0.155-0.256,0.354-0.26,0.592v4.034h-1.047V55.08c0-0.431,0.165-0.794,0.499-1.094
		c0.338-0.303,0.744-0.456,1.211-0.456h2.578c0.478,0,0.881,0.153,1.211,0.456C102.605,54.286,102.774,54.649,102.774,55.08z"/>
	<path fill="#58595B" d="M109.587,59.336V58.36h2.988c0.271,0,0.499-0.087,0.676-0.265c0.179-0.179,0.266-0.405,0.266-0.678v-5.955
		h1.082v6.097c0,0.486-0.173,0.906-0.521,1.255c-0.344,0.349-0.759,0.521-1.25,0.521H109.587z"/>
	<path fill="#58595B" d="M116.641,50.941h1.043v1.542h-1.043V50.941z M116.641,53.53h1.043v5.806h-1.043V53.53z"/>
	<path fill="#58595B" d="M125.462,59.336h-4.187c-0.478,0-0.883-0.149-1.223-0.454c-0.334-0.305-0.501-0.665-0.501-1.088v-2.721
		c0-0.43,0.169-0.793,0.507-1.093c0.338-0.306,0.743-0.454,1.217-0.45h4.187V59.336z M124.413,58.393v-3.911h-2.895
		c-0.262,0-0.479,0.079-0.66,0.233c-0.167,0.158-0.254,0.353-0.26,0.587v2.271c0.006,0.234,0.093,0.429,0.26,0.587
		c0.181,0.154,0.398,0.232,0.66,0.232H124.413z"/>
	<path fill="#58595B" d="M131.749,51.463h7.524v0.916h-3.224v6.957h-1.085v-6.957h-3.216V51.463z"/>
	<path fill="#58595B" d="M141.694,53.53h2.485c0.478,0,0.882,0.153,1.21,0.456c0.336,0.295,0.503,0.657,0.503,1.087v1.901h-4.87
		v1.062c0,0.112,0.053,0.207,0.157,0.285c0.103,0.07,0.231,0.107,0.377,0.111h3.815v0.903h-3.998c-0.383,0-0.711-0.113-0.99-0.343
		c-0.267-0.235-0.402-0.516-0.402-0.841v-1.178v-1.901c0-0.43,0.167-0.793,0.501-1.093C140.822,53.681,141.225,53.53,141.694,53.53z
		 M141.94,54.475c-0.256,0-0.474,0.078-0.658,0.235c-0.173,0.155-0.26,0.352-0.26,0.585v0.743h3.821v-0.743
		c-0.004-0.238-0.094-0.436-0.266-0.592c-0.169-0.156-0.385-0.232-0.647-0.229H141.94z"/>
	<path fill="#58595B" d="M149.321,53.53h3.684v0.951h-3.441c-0.266,0.005-0.485,0.085-0.66,0.24
		c-0.171,0.147-0.258,0.342-0.258,0.58v2.271c0,0.234,0.087,0.429,0.258,0.587c0.175,0.154,0.395,0.232,0.66,0.232h3.441v0.943
		h-3.684c-0.468,0-0.874-0.149-1.218-0.454c-0.332-0.305-0.501-0.665-0.501-1.088v-2.721c0-0.43,0.169-0.793,0.509-1.093
		C148.449,53.675,148.854,53.526,149.321,53.53z"/>
	<path fill="#58595B" d="M154.933,50.941h1.049v2.589h3.136c0.483,0,0.891,0.153,1.225,0.456c0.334,0.295,0.501,0.657,0.501,1.087
		v4.263h-1.049v-4.041c0-0.227-0.077-0.42-0.232-0.585c-0.157-0.166-0.352-0.246-0.587-0.241h-2.993v4.867h-1.049V50.941z"/>
	<path fill="#58595B" d="M168.724,55.08v4.256h-1.054v-4.034c0-0.238-0.088-0.437-0.263-0.592c-0.173-0.157-0.388-0.235-0.648-0.235
		h-2.077c-0.261,0-0.478,0.078-0.648,0.235c-0.171,0.155-0.257,0.354-0.263,0.592v4.034h-1.048V55.08
		c0-0.431,0.169-0.794,0.501-1.094c0.34-0.303,0.741-0.456,1.211-0.456h2.579c0.476,0,0.879,0.153,1.209,0.456
		C168.557,54.286,168.724,54.649,168.724,55.08z"/>
	<path fill="#58595B" d="M172.24,53.53h2.798c0.476,0,0.884,0.153,1.216,0.456c0.336,0.3,0.503,0.662,0.503,1.087v2.721
		c0,0.426-0.169,0.791-0.509,1.093c-0.332,0.301-0.738,0.449-1.21,0.449h-2.798c-0.47,0-0.876-0.149-1.219-0.454
		c-0.334-0.305-0.499-0.665-0.499-1.088v-2.721c0-0.43,0.167-0.793,0.507-1.093C171.366,53.675,171.771,53.526,172.24,53.53z
		 M172.487,54.481c-0.261,0-0.479,0.08-0.658,0.24c-0.169,0.157-0.257,0.35-0.261,0.58v2.271c0.004,0.234,0.092,0.429,0.261,0.587
		c0.179,0.154,0.397,0.232,0.658,0.232h2.303c0.27,0,0.489-0.078,0.658-0.232c0.175-0.158,0.26-0.353,0.26-0.587v-2.271
		c0-0.234-0.085-0.429-0.26-0.587c-0.169-0.154-0.389-0.233-0.658-0.233H172.487z"/>
	<path fill="#58595B" d="M178.702,50.941h1.041v8.395h-1.041V50.941z"/>
	<path fill="#58595B" d="M183.335,53.53h2.8c0.478,0,0.882,0.153,1.218,0.456c0.334,0.3,0.501,0.662,0.501,1.087v2.721
		c0,0.426-0.169,0.791-0.507,1.093c-0.334,0.301-0.738,0.449-1.212,0.449h-2.8c-0.468,0-0.872-0.149-1.216-0.454
		c-0.336-0.305-0.501-0.665-0.501-1.088v-2.721c0-0.43,0.169-0.793,0.507-1.093C182.463,53.675,182.867,53.526,183.335,53.53z
		 M183.586,54.481c-0.263,0-0.482,0.08-0.66,0.24c-0.169,0.157-0.255,0.35-0.261,0.58v2.271c0.006,0.234,0.092,0.429,0.261,0.587
		c0.178,0.154,0.397,0.232,0.66,0.232h2.303c0.268,0,0.489-0.078,0.656-0.232c0.175-0.158,0.26-0.353,0.26-0.587v-2.271
		c0-0.234-0.085-0.429-0.26-0.587c-0.167-0.154-0.389-0.233-0.656-0.233H183.586z"/>
	<path fill="#58595B" d="M191.321,53.53h4.188v6.522c0,0.425-0.171,0.791-0.51,1.094c-0.332,0.299-0.74,0.449-1.216,0.449h-3.658
		v-0.938h3.517c0.232,0,0.427-0.081,0.584-0.246c0.155-0.168,0.233-0.365,0.233-0.587v-0.488h-3.138
		c-0.476,0-0.886-0.149-1.224-0.454c-0.334-0.305-0.499-0.665-0.499-1.088v-2.727c0-0.426,0.169-0.787,0.507-1.087
		C190.445,53.681,190.85,53.53,191.321,53.53z M191.563,54.469c-0.26,0-0.479,0.078-0.658,0.234
		c-0.169,0.156-0.256,0.352-0.26,0.586v2.277c0,0.221,0.077,0.418,0.232,0.586c0.157,0.161,0.352,0.24,0.589,0.24
		c1.476-0.003,2.474-0.003,2.992,0v-3.924H191.563z"/>
	<path fill="#58595B" d="M197.377,53.53h1.047v4.036c0,0.221,0.077,0.418,0.232,0.586c0.157,0.161,0.354,0.24,0.587,0.24h2.994
		V53.53h1.048v5.806v0.717c0,0.425-0.171,0.791-0.507,1.094c-0.333,0.299-0.739,0.449-1.217,0.449h-3.66v-0.938h3.519
		c0.232,0,0.429-0.081,0.584-0.246c0.155-0.168,0.233-0.365,0.233-0.587v-0.488H199.1c-0.476,0-0.884-0.149-1.224-0.454
		c-0.332-0.305-0.499-0.665-0.499-1.088V53.53z"/>
	<path fill-rule="evenodd" clip-rule="evenodd" fill="#214EA1" d="M35.931,51.538c0.104-0.004,0.207-0.015,0.309-0.015
		c0.106,0,0.206,0.008,0.307,0.015l0.38,0.037c2.489,0.338,4.412,2.463,4.408,5.044v0.088l0.007-0.006
		c0.042,2.775,2.304,5.012,5.09,5.014c2.813,0,5.095-2.281,5.095-5.096c0-2.813-2.282-5.096-5.095-5.096
		c-2.815,0-5.093-2.282-5.093-5.094c-0.004-2.816,2.277-5.098,5.093-5.095c2.813-0.003,5.095-2.282,5.095-5.1
		c0-0.464-0.066-0.918-0.187-1.349c-0.439-1.601-1.639-2.886-3.191-3.441c-0.538-0.192-1.114-0.302-1.718-0.305c0,0-0.004,0-0.007,0
		c-2.811-0.004-5.086-2.281-5.086-5.094c0-2.813,2.277-5.095,5.093-5.095c2.813,0,5.095-2.283,5.095-5.097
		c0-2.813-2.279-5.096-5.095-5.096c-2.786,0-5.047,2.239-5.09,5.015l-0.007-0.003v0.083c0,2.583-1.918,4.708-4.408,5.044
		l-0.377,0.038c-0.1,0.006-0.199,0.015-0.302,0.015c-0.004,0-0.006,0-0.006,0c-0.05,0-0.099,0.005-0.149,0.005l0.003-0.005h0.146
		c-0.104,0-0.207-0.013-0.311-0.015l-0.378-0.038c-2.487-0.337-4.406-2.462-4.406-5.044v-0.083l-0.006,0.003
		c-0.043-2.776-2.303-5.015-5.091-5.015c-2.813,0-5.093,2.282-5.095,5.096c0,2.814,2.281,5.097,5.095,5.097
		c2.814,0,5.097,2.281,5.097,5.095c0,2.815-2.282,5.097-5.097,5.097c-2.813-0.003-5.095,2.279-5.095,5.095
		c0.001,2.814,2.281,5.094,5.095,5.094c2.788,0,5.047-2.235,5.093-5.012l0.004,0.004v-0.085c0-2.581,1.918-4.708,4.406-5.045
		l0.378-0.036c0.104-0.006,0.207-0.017,0.311-0.014l-0.146-0.003l-0.003-0.007c0.05,0,0.099,0.01,0.149,0.01h0.002
		c0.103,0,0.206,0.008,0.306,0.014l0.381,0.039c2.485,0.336,4.404,2.462,4.404,5.042c0.004,2.579-1.918,4.706-4.408,5.041
		l-0.377,0.037c-0.1,0.006-0.203,0.016-0.306,0.016c-0.002,0-0.002,0.003-0.002,0l0,0l-0.002,0.003
		c-0.019,0-0.035,0.002-0.057,0.002c-0.153,0-0.308,0.009-0.458,0.023c-0.083,0.006-0.159,0.024-0.237,0.035
		c-0.089,0.013-0.18,0.023-0.266,0.04c-0.093,0.018-0.188,0.048-0.28,0.07c-0.071,0.018-0.136,0.032-0.207,0.052
		c-0.102,0.032-0.201,0.073-0.296,0.111c-0.054,0.021-0.114,0.037-0.166,0.058c-0.109,0.047-0.214,0.099-0.319,0.155
		c-0.042,0.021-0.082,0.036-0.122,0.057c-0.113,0.062-0.222,0.129-0.33,0.197c-0.028,0.019-0.057,0.033-0.085,0.054
		c-0.12,0.078-0.233,0.162-0.343,0.252c-0.016,0.013-0.03,0.021-0.045,0.032c-0.118,0.097-0.236,0.201-0.342,0.309
		c-0.006,0.002-0.012,0.009-0.017,0.015c-0.919,0.9-1.494,2.15-1.521,3.538l-0.002-0.004v0.097c0,2.816-2.282,5.096-5.097,5.096
		c-2.813,0-5.095,2.282-5.093,5.096c-0.001,2.814,2.28,5.094,5.093,5.096c2.788,0,5.047-2.238,5.091-5.014l0.006,0.002v-0.084
		c0-2.581,1.92-4.706,4.406-5.044L35.931,51.538z M36.387,20.952v0.005c-0.043,0-0.086-0.005-0.131-0.005H36.387z M36.248,31.143
		c0.023-0.003,0.046-0.003,0.073-0.007c0.024,0,0.047-0.003,0.067-0.003v0.007L36.248,31.143z M36.093,51.518
		c0.045,0,0.09,0.003,0.135,0.006c0.005,0,0.008,0,0.012,0h-0.144L36.093,51.518z M36.24,51.523c0.002,0,0.002,0,0.002,0l0,0H36.24
		L36.24,51.523z M36.242,51.523c0.002,0,0.002,0,0.006,0c0.046,0,0.093-0.006,0.14-0.006v0.006H36.242z M36.387,41.332v0.008
		c-0.035-0.003-0.07-0.003-0.103-0.003c-0.014,0-0.024-0.002-0.037-0.002L36.387,41.332z"/>
	<path fill-rule="evenodd" clip-rule="evenodd" fill="#C83B94" d="M52.986,29.368c1.999,2,5.241,2,7.238,0.003
		c1.997-2.001,1.997-5.239-0.004-7.239c-1.998-2-5.235-2-7.234,0C50.988,24.129,50.988,27.367,52.986,29.368z"/>
	<path fill-rule="evenodd" clip-rule="evenodd" fill="#214EA1" d="M63.268,39.71c2,1.996,5.238,1.996,7.238,0
		c1.996-2,1.996-5.239,0-7.239c-2-1.997-5.241-1.997-7.238,0C61.271,34.471,61.271,37.71,63.268,39.71z"/>
	<circle fill-rule="evenodd" clip-rule="evenodd" fill="#C83B94" cx="56.71" cy="46.518" r="5.117"/>
	<circle fill-rule="evenodd" clip-rule="evenodd" fill="#C83B94" cx="36.346" cy="66.884" r="5.118"/>
	<path fill-rule="evenodd" clip-rule="evenodd" fill="#C83B94" d="M19.254,42.872c-2-1.999-5.242-1.999-7.239,0
		c-1.999,1.997-1.999,5.238,0,7.238c1.997,1.997,5.239,1.997,7.239-0.003C21.25,48.11,21.25,44.869,19.254,42.872z"/>
	<path fill-rule="evenodd" clip-rule="evenodd" fill="#214EA1" d="M8.739,32.472c-1.999-2-5.239-1.997-7.237,0
		c-2.002,1.998-2.002,5.239,0,7.236c1.998,2,5.238,2,7.237,0C10.736,37.711,10.736,34.47,8.739,32.472z"/>
	<circle fill-rule="evenodd" clip-rule="evenodd" fill="#C83B94" cx="35.659" cy="5.117" r="5.117"/>
	<path fill-rule="evenodd" clip-rule="evenodd" fill="#214EA1" d="M19.254,22.132c-2-2-5.24-2-7.239,0
		c-1.996,1.997-1.996,5.239,0,7.236c2,2,5.239,1.997,7.239,0C21.25,27.371,21.25,24.129,19.254,22.132z"/>
	<g>
		<g>
			<path fill="#214EA1" d="M85.697,45.007h-3.769c2.346-2.261,4.205-4.3,5.652-6.935h3.192
				C89.406,40.681,87.755,42.719,85.697,45.007z M82.449,25.851v-1.978h24.563v1.978H82.449z M104.638,36.011
				c-0.522,0.495-1.281,0.784-2.323,0.784h-6.206v6.85c0,0.931-0.261,1.569-0.73,2.003c-0.465,0.435-1.155,0.639-2.025,0.639H89.32
				l-0.897-2.091h4.29c0.35,0,0.728-0.374,0.728-0.782v-6.619h-6.585c-0.955,0-1.678-0.259-2.174-0.812
				c-0.407-0.462-0.638-1.159-0.638-2.121v-3.076c0-0.924,0.261-1.625,0.757-2.086c0.521-0.492,1.301-0.756,2.318-0.756h15.312
				c1.044,0,1.771,0.232,2.262,0.727c0.489,0.52,0.728,1.275,0.728,2.293v2.785C105.42,34.704,105.182,35.49,104.638,36.011z
				 M102.634,30.643c0-0.408-0.291-0.699-0.695-0.699H87.522c-0.349,0-0.722,0.32-0.722,0.727v3.42c0,0.47,0.318,0.671,0.695,0.671
				h14.353c0.437,0,0.786-0.348,0.786-0.753V30.643z M104.172,45.007c-2.032-2.205-3.856-4.3-5.188-6.935h3.156
				c1.422,2.667,3.449,4.729,5.8,6.935H104.172z"/>
			<path fill="#214EA1" d="M121.847,36.917c0,0.349-0.029,1.042-0.062,1.509h3.196c0.753,0,1.389,0.259,1.823,0.722
				c0.406,0.41,0.609,0.962,0.609,1.623v3.02c0,0.784-0.232,1.39-0.664,1.828c-0.442,0.431-1.048,0.638-1.802,0.638h-2.521
				l-0.759-1.913h2.584c0.346,0,0.606-0.291,0.606-0.637v-2.784c0-0.296-0.344-0.609-0.662-0.609h-2.67
				c-0.348,2.029-1.625,4.464-3.045,5.943h-3.454c1.829-1.649,3.454-3.914,3.945-5.943h-3.654v-1.887h3.946
				c0.028-0.348,0.056-1.073,0.056-1.509h-4.144v-1.826h6.874c-0.233-0.376-0.786-1.193-0.99-1.712h-2.029
				c-0.664,0-1.222-0.147-1.6-0.431c-0.4-0.325-0.603-0.816-0.603-1.425v-1.449c0-0.549,0.202-1.017,0.583-1.338
				c0.314-0.289,0.776-0.459,1.271-0.459h17.896c0.633,0,1.163,0.17,1.507,0.489c0.403,0.35,0.613,0.873,0.613,1.539v1.043
				c0,0.668-0.21,1.162-0.556,1.508c-0.378,0.375-0.869,0.523-1.51,0.523h-2.228c-0.21,0.463-0.643,1.304-0.845,1.712h6.813v1.826
				H121.847z M129.012,24.099v1.335h9.999v1.798h-22.589v-1.798h9.916v-1.335h-11.136v-1.797h11.136v-1.367h2.674v1.367h11.017
				v1.797H129.012z M135.967,30.537c0-0.203-0.145-0.434-0.432-0.434h-15.634c-0.261,0-0.462,0.231-0.462,0.465v0.554
				c0,0.197,0.229,0.465,0.462,0.465h15.549c0.285,0,0.517-0.268,0.517-0.528V30.537z M123.93,33.379
				c0.233,0.52,0.787,1.277,1.072,1.712h5.689c0.291-0.467,0.667-1.193,0.867-1.712H123.93z M138.955,45.679
				c-0.404,0.371-0.987,0.578-1.768,0.578h-5.652c-0.728,0-1.364-0.265-1.8-0.726c-0.35-0.404-0.58-0.924-0.58-1.565v-3.772
				c0-0.545,0.289-1.045,0.693-1.389c0.376-0.325,0.873-0.495,1.394-0.495h6.057c0.759,0,1.401,0.233,1.802,0.668
				c0.378,0.405,0.582,0.954,0.582,1.625v3.392C139.683,44.656,139.453,45.27,138.955,45.679z M137.188,40.833
				c0-0.346-0.354-0.64-0.666-0.64h-4.295c-0.316,0-0.576,0.264-0.576,0.64v2.928c0,0.321,0.316,0.637,0.607,0.637h4.264
				c0.404,0,0.666-0.369,0.666-0.726V40.833z"/>
			<path fill="#214EA1" d="M171.553,46.314h-6.659c-0.87,0-1.565-0.322-2.027-0.87c-0.438-0.55-0.668-1.304-0.668-2.262v-8.904
				h-5.167c0.035,2.812-0.346,5.245-1.242,7.221c-0.845,1.826-2.237,3.424-4.181,4.814h-4.551c2.665-1.537,4.667-3.479,5.859-5.309
				c1.163-1.769,1.509-3.915,1.361-6.727h-6.961v-2.147h10.848V20.997h2.729v11.134h10.947v2.147h-6.919v8.873
				c0,0.556,0.406,0.958,0.931,0.958h6.656L171.553,46.314z M152.42,30.711c-1.417-2.667-2.377-5.511-3.299-8.354h2.868
				c0.898,2.904,1.998,5.713,3.539,8.354H152.42z M166.81,30.711h-3.134c1.713-2.578,2.613-5.396,3.454-8.354h2.767
				C169.185,25.261,168.229,28.069,166.81,30.711z"/>
			<path fill="#214EA1" d="M202.318,46.173h-10.852c-0.748,0-1.416-0.352-1.884-0.875c-0.487-0.552-0.751-1.27-0.751-2.027v-4.302
				h-6.782c-0.839,0-1.567-0.287-2.088-0.781c-0.641-0.585-0.992-1.423-0.992-2.381v-9.074c0-0.784,0.325-1.453,0.841-1.916
				c0.585-0.551,1.367-0.841,2.123-0.841h6.898v-3.041h2.724v3.041h7.19c0.728,0,1.452,0.376,2.008,0.957
				c0.462,0.493,0.784,1.158,0.784,1.799v9.192c0,0.807-0.291,1.478-0.729,2.001c-0.551,0.637-1.366,1.043-2.234,1.043h-7.02v4.156
				c0,0.582,0.581,1.042,1.107,1.042h10.44L202.318,46.173z M188.832,25.976h-6.287c-0.438,0-0.932,0.491-0.932,0.926v3.478h7.219
				V25.976z M188.832,32.355h-7.219v3.569c0,0.578,0.521,1.044,1.101,1.044h6.118V32.355z M198.837,26.815
				c0-0.403-0.493-0.84-0.902-0.84h-6.379v4.437h7.281V26.815z M198.837,32.355h-7.281v4.613h6.355c0.403,0,0.926-0.434,0.926-0.901
				V32.355z"/>
		</g>
		<circle fill="#214EA1" cx="94.755" cy="20.143" r="2.05"/>
	</g>
</g>
</svg>
